<svg xmlns="http://www.w3.org/2000/svg" xmlns:xlink="http://www.w3.org/1999/xlink" viewBox="0,0,256,256" width="50px" height="50px"><defs><clipPath id="clip-1"><path d="M-42.66667,298.66667v-341.33333h341.33333v341.33333zM217.23735,140.66015c-7.42644,0 -14.85289,2.78492 -19.95857,8.35475l-60.33985,60.80401c-1.85661,1.85661 -2.78492,3.71322 -3.71322,6.03399l-7.8906,27.84916c-1.39246,4.64153 0,10.21136 3.24907,13.46043c2.78492,2.78492 6.49814,4.17737 10.21136,4.17737c1.39246,0 2.32076,0 3.71322,-0.46415l27.84916,-7.42644c2.32076,-0.46415 4.64153,-1.85661 6.03399,-3.71322c0,0 60.33985,-60.33985 60.80401,-61.26816c10.67551,-11.13967 10.67551,-28.77747 0,-39.91713c-5.10568,-5.10568 -12.53212,-7.8906 -19.95857,-7.8906z" id="overlayBgMask" fill="none"></path></clipPath></defs><g transform="translate(32,32) scale(0.75,0.75)"><g fill="#a57ae6" fill-rule="nonzero" stroke="none" stroke-width="1" stroke-linecap="butt" stroke-linejoin="miter" stroke-miterlimit="10" stroke-dasharray="" stroke-dashoffset="0" font-family="none" font-weight="none" font-size="none" text-anchor="none" style="mix-blend-mode: normal"><path d="M128,298.66667c-94.2566,0 -170.66667,-76.41007 -170.66667,-170.66667v0c0,-94.2566 76.41007,-170.66667 170.66667,-170.66667v0c94.2566,0 170.66667,76.41007 170.66667,170.66667v0c0,94.2566 -76.41007,170.66667 -170.66667,170.66667z" id="shape"></path></g><g clip-path="url(#clip-1)" fill="none" fill-rule="nonzero" stroke="none" stroke-width="1" stroke-linecap="butt" stroke-linejoin="miter" stroke-miterlimit="10" stroke-dasharray="" stroke-dashoffset="0" font-family="none" font-weight="none" font-size="none" text-anchor="none" style="mix-blend-mode: normal"><g transform="scale(5.12,5.12)" fill="#ffffff"><path d="M8,8c-2.243,0 -4,1.757 -4,4v22c0,0.738 0.20506,1.413 0.53906,2h-2.53906c-0.553,0 -1,0.447 -1,1c0,2.757 2.243,5 5,5h38c2.757,0 5,-2.243 5,-5c0,-0.553 -0.447,-1 -1,-1h-2.53906c0.334,-0.587 0.53906,-1.262 0.53906,-2v-22c0,-2.243 -1.757,-4 -4,-4zM8,10h34c1.141,0 2,0.859 2,2v22c0,1.141 -0.859,2 -2,2h-34c-1.141,0 -2,-0.859 -2,-2v-22c0,-1.141 0.859,-2 2,-2zM26.49805,14.98633c-0.4754,0.00203 -0.88368,0.33844 -0.97656,0.80469l-3,14c-0.07477,0.34963 0.04271,0.71259 0.30816,0.95211c0.26545,0.23952 0.63853,0.3192 0.97866,0.20902c0.34013,-0.11018 0.59563,-0.39348 0.67022,-0.74315l3,-14c0.06795,-0.29766 -0.00379,-0.61005 -0.1948,-0.84824c-0.19101,-0.23819 -0.48036,-0.37608 -0.78567,-0.37442zM18.03711,17.98828c-0.33022,-0.00945 -0.6438,0.14478 -0.83789,0.41211l-3.44922,4.59961l3.44922,4.59961c0.33115,0.44226 0.95813,0.53233 1.40039,0.20117c0.44226,-0.33115 0.53233,-0.95813 0.20117,-1.40039l-2.55078,-3.40039l2.55078,-3.40039c0.23022,-0.29785 0.27368,-0.69975 0.11245,-1.03993c-0.16122,-0.34018 -0.49982,-0.56101 -0.87612,-0.5714zM31.93359,17.99023c-0.37032,0.0213 -0.69843,0.24582 -0.85241,0.58327c-0.15399,0.33746 -0.10855,0.73242 0.11804,1.0261l2.55078,3.40039l-2.55078,3.40039c-0.33115,0.44226 -0.24109,1.06924 0.20117,1.40039c0.44226,0.33115 1.06924,0.24109 1.40039,-0.20117l3.44922,-4.59961l-3.44922,-4.59961c-0.20035,-0.27548 -0.52714,-0.43004 -0.86719,-0.41016z"></path></g></g><g fill="#ffffff" fill-rule="nonzero" stroke="none" stroke-width="1" stroke-linecap="butt" stroke-linejoin="miter" stroke-miterlimit="10" stroke-dasharray="" stroke-dashoffset="0" font-family="none" font-weight="none" font-size="none" text-anchor="none" style="mix-blend-mode: normal"><g transform="translate(134.0864,150.00122) scale(4.64153,4.64153)" id="overlay"><path d="M17.9,0c-1,0 -1.9,0.4 -2.7,1.1v0l-0.2,0.1v0l-0.1,0.1l-0.3,0.3v0l-0.7,0.7l-0.2,0.2l-11.7,11.8c-0.1,0.1 -0.2,0.3 -0.3,0.4l-1.7,6c-0.2,0.5 0.1,1.1 0.7,1.2c0.2,0.1 0.4,0.1 0.5,0l6,-1.6c0.2,0 0.3,-0.1 0.5,-0.3l12.8,-12.8v0l0.3,-0.2c1.6,-1.6 1.6,-4.2 0,-5.8c-0.8,-0.9 -1.9,-1.2 -2.9,-1.2zM17.9,2c0.5,0 1.1,0.2 1.5,0.6c0.8,0.8 0.8,2 0.1,2.8l-2.9,-2.9c0.4,-0.3 0.8,-0.5 1.3,-0.5zM15.1,3.9l3,3l-11.6,11.6l-2.9,-2.9v-0.1z"></path></g></g></g></svg>